<svg width="42" height="38" viewBox="0 0 42 38" fill="none" xmlns="http://www.w3.org/2000/svg">
<path d="M40.2765 28.6206C38.4691 30.9133 36.2233 32.8232 33.6703 34.2392C31.1172 35.6551 28.3078 36.5488 25.4059 36.8681C22.5039 37.1873 19.5675 36.9258 16.7676 36.0988C13.9678 35.2717 11.3606 33.8957 9.09788 32.0508C6.8352 30.206 4.96234 27.9293 3.58843 25.3533C2.21453 22.7774 1.36706 19.9537 1.09543 17.0469C0.823801 14.1402 1.13343 11.2084 2.00628 8.42247C2.87913 5.63657 4.29775 3.05225 6.17944 0.820125" stroke="#00519C" stroke-width="2"/>
<path d="M40.2765 28.6206C38.4691 30.9133 36.2233 32.8232 33.6703 34.2392C31.1172 35.6551 28.3078 36.5488 25.4059 36.8681C22.5039 37.1873 19.5675 36.9258 16.7676 36.0988C13.9678 35.2717 11.3606 33.8957 9.09788 32.0508C6.8352 30.206 4.96234 27.9293 3.58843 25.3533C2.21453 22.7774 1.36706 19.9537 1.09543 17.0469C0.823801 14.1402 1.13343 11.2084 2.00628 8.42247C2.87913 5.63657 4.29775 3.05225 6.17944 0.820125" stroke="black" stroke-opacity="0.2" stroke-width="2"/>
</svg>
