<svg width="86" height="110" viewBox="0 0 86 110" fill="none" xmlns="http://www.w3.org/2000/svg">
<g clip-path="url(#clip0_31_65)">
<path d="M84.0461 43.7858C82.3593 36.8988 76.3885 26.9474 58.021 26.9474C54.1922 26.9474 44.0892 28.0214 42.2567 28.0214C42.4084 27.4086 44.2469 22.2024 44.5503 21.4378C43.3246 20.8249 40.1087 20.2121 35.5153 20.0604C24.7994 19.757 11.7838 24.3443 3.67106 30.3151C2.75482 33.0699 1.07401 37.3599 0 39.957C8.42221 35.5153 20.8189 30.928 30.309 30.0056C36.741 29.3928 39.1863 30.6185 39.9509 31.0797C40.7154 31.3831 34.4413 33.5311 34.593 35.9764C34.593 39.0407 47.4508 35.673 55.873 35.9764C70.4177 36.4376 76.8436 41.4861 79.1433 48.6826C82.0498 57.5599 76.8436 66.1338 70.4177 69.3498C78.3788 67.3595 86.9527 55.8791 84.0461 43.7858Z" fill="#E30613"/>
<path d="M35.5154 20.0604C40.1088 20.2121 43.3247 20.825 44.5505 21.4378C44.2471 22.2024 42.4085 27.4086 42.2568 28.0215C44.0954 28.0215 54.1984 26.9474 58.0211 26.9474C76.3886 26.9474 82.3594 36.8988 84.0463 43.7858C84.5074 45.7761 84.6591 47.6146 84.6591 49.4471C85.7331 44.3926 85.7331 38.2701 85.1203 34.9024C84.0463 28.0154 77.9238 18.3675 61.0854 18.0641C57.2566 18.0641 47.1536 19.132 45.4728 19.132C45.6245 18.5192 47.463 13.3129 47.6147 12.5484C46.5407 11.9355 43.7859 10.8615 39.1925 10.7098C28.325 10.5581 15.3094 14.9937 7.19661 20.9645C6.28036 23.7193 4.74519 27.6999 3.67725 30.303C11.79 24.3443 24.7995 19.7509 35.5154 20.0604Z" fill="#009FE3"/>
<path d="M84.8107 24.0409C83.2816 18.5313 77.3108 9.65398 64.1435 9.34451C60.3147 9.34451 50.6728 10.1091 48.5309 10.2608C48.6826 9.7996 50.2177 5.21229 50.5211 4.44167C49.5988 3.21596 46.844 2.14801 42.2506 1.99632C31.383 1.69292 18.5192 6.5897 10.4064 12.7122C9.49015 15.467 7.19043 21.2861 7.19043 20.9766C15.3032 15.0058 28.3188 10.5642 39.1863 10.7219C43.7797 10.8736 46.5345 11.9476 47.6086 12.5605C47.4569 13.325 45.6183 18.5313 45.4666 19.1441C47.1535 19.1441 57.2565 18.0762 61.0792 18.0762C77.9176 18.3796 84.0401 28.0275 85.1141 34.9145C85.4175 36.5953 85.5752 39.1985 85.4175 41.9533C86.3398 36.1342 86.1881 29.7022 84.8107 24.0409Z" fill="white"/>
<path d="M84.5011 21.5895C83.2754 16.535 77.4563 7.35428 64.2951 7.35428C59.8534 7.35428 51.589 7.96713 49.1375 8.27053C48.8281 9.34454 48.5247 10.1091 48.5247 10.2608C50.6666 10.1091 60.3146 9.34454 64.1373 9.34454C77.3046 9.654 83.2754 18.5313 84.8045 24.0409C85.1079 25.4183 85.2657 26.6441 85.5691 28.0215C85.2717 25.4183 84.9623 23.1186 84.5011 21.5895ZM50.521 4.4417C50.8244 3.67714 50.9822 2.91259 51.1339 2.60313C50.0599 1.68688 47.1533 0.151707 42.8694 1.01696e-05C32.1475 -0.151687 19.2897 4.75116 11.1769 10.7219C11.0252 11.3348 10.7157 11.9477 10.4124 12.7122C18.5251 6.74142 31.5346 1.68688 42.2505 1.99634C46.6922 2.14804 49.447 3.21598 50.521 4.4417Z" fill="#004994"/>
<path d="M73.7915 55.424C75.3206 54.5077 76.8497 52.208 76.2429 51.9046C75.0172 51.4435 73.027 50.5272 71.4978 50.2177C71.959 48.6886 69.9687 47.7663 65.9882 46.3889C65.6848 44.8598 63.2334 43.1729 61.2431 44.702C58.4883 43.1729 50.9884 40.7215 47.1596 40.2604C46.8562 40.8732 46.2434 41.9472 45.0176 42.0989C39.1925 43.0212 33.3734 39.6536 24.4961 39.957C17.609 40.2664 10.1031 47.4569 11.3288 56.1825C12.245 56.4919 13.3191 57.4082 12.8579 58.4822C12.3967 59.5562 11.6322 60.6242 10.5642 63.2273C9.64799 65.8304 8.27058 71.4917 11.1771 75.4722H18.9865C19.1381 74.8594 19.1381 72.7174 18.2219 72.5657C17.4573 72.414 16.6928 71.34 16.8445 70.266C17.1479 69.0403 18.2219 68.1241 20.5216 67.05C20.0605 65.3692 18.9925 63.5307 18.8408 62.9178C19.7571 62.7661 24.6599 71.9468 25.2728 73.0208C26.0373 74.0888 26.9536 75.0111 28.0276 75.4722H36.5894C36.5894 74.556 36.4377 72.5657 35.5153 72.2563C34.2896 71.9529 32.9122 72.1046 32.6088 70.7272C32.2994 69.3498 33.2217 67.669 33.5251 65.5209C35.3636 64.9081 38.1185 65.0598 39.1864 64.9081C38.2702 67.8146 38.5736 71.7951 38.7253 73.1725C38.8769 73.6337 40.1027 74.8594 41.7895 75.4722H50.3634C50.3634 74.7077 50.06 72.408 49.1377 72.408C46.9958 72.2563 45.7701 71.34 45.7701 70.4177C45.9218 69.3437 47.1475 68.124 48.986 66.4372C49.7506 65.8243 51.8925 62.9178 52.8149 63.379C51.7469 64.1435 51.1341 65.6726 50.5212 66.7466C51.4375 69.5015 55.5757 73.9431 58.1789 75.4722H66.7467C66.595 74.556 65.9821 72.408 64.453 72.2563C62.3111 71.7951 61.2371 71.4917 60.4725 70.4177C59.8597 69.3437 59.3985 65.8243 58.6339 63.8341C57.2565 60.9275 57.1048 59.7018 58.4823 58.9373C58.6339 59.3984 59.5563 61.0792 60.0114 61.5404C62.3111 61.237 67.2079 59.7018 67.8207 58.3244C69.3498 58.4761 70.8789 58.4761 71.6495 58.1727C71.8012 58.1727 73.027 56.6436 72.7236 56.3342C72.5719 56.1825 72.2624 56.1825 71.8073 56.1825C72.5658 56.0368 73.482 55.5757 73.7915 55.424Z" fill="#004994"/>
<path d="M69.8047 51.5951C69.3436 51.5951 67.8145 52.6692 67.3533 52.6692C66.8922 52.208 65.5148 50.2177 69.8047 50.6789C70.4176 50.6789 69.9564 50.066 69.5014 49.7626C68.5851 49.3015 66.8982 48.6886 64.7563 48.0818C64.2951 46.2433 62.1532 45.4787 61.5403 47.6207C59.0889 46.2433 53.5792 44.1013 49.7504 43.4885C49.2893 43.7979 49.1376 45.327 46.5344 45.7882C43.3185 46.401 36.8926 44.4108 29.5444 43.4885C22.1962 42.5722 16.3771 46.2433 15.6125 52.9786C17.2934 52.6752 20.8188 52.5175 23.1124 55.5817C30.1572 64.459 28.7738 67.675 29.9995 68.2879C31.3769 65.2236 33.5189 58.3365 31.3769 54.2043C32.1414 53.9009 33.3672 54.9689 34.5929 56.0429C35.9703 57.4203 38.27 58.4943 40.2542 58.3365C41.0187 55.43 44.3864 52.5175 45.3087 52.6752C43.4702 55.7395 42.5539 57.572 41.6316 61.0914C40.2542 65.3813 40.7154 70.2781 41.6316 70.4298C41.9411 69.0524 42.5479 66.4493 44.6959 62.9299C48.0635 57.572 54.4955 52.9786 59.2406 54.0526C57.8632 54.3621 56.7892 55.7395 56.4858 56.3463C58.3243 56.8074 59.2406 57.572 60.0051 58.4882C61.692 56.9591 64.9019 57.2625 67.0499 56.3463C67.0499 55.7334 67.2016 54.9689 68.2756 54.8172C69.653 54.6655 71.4916 55.2783 72.7173 54.6655C73.1785 54.3621 74.2464 53.1364 74.2464 52.3718C73.7913 52.0502 71.795 51.5951 69.8047 51.5951Z" fill="white"/>
<path d="M15.1576 84.3556H9.95139V85.733H14.0836C14.0836 87.2621 13.9319 88.3361 13.4708 88.3361H9.95139V89.7136H15.1576V92.6201H6.12256V81.6008H15.1576V84.3556Z" fill="#004994"/>
<path d="M22.1964 84.5073C22.0447 86.6493 21.5835 88.4878 20.9707 89.5619H23.5738V84.5073H22.1964ZM25.2607 94.3069V92.6201H19.5933V94.3069H16.2256V89.5619C16.2256 89.5619 16.3773 89.5619 16.9901 89.4102C17.7547 89.1007 18.3675 88.1844 18.677 86.807C19.1382 84.9685 19.2899 82.9782 19.2899 81.6008H27.4026V89.7136H28.78V94.3069H25.2607Z" fill="#004994"/>
<path d="M37.9668 92.62V88.0267V86.9527C37.9668 86.9527 35.5154 90.1686 35.0603 91.0849C34.7569 91.6977 34.144 92.614 33.07 92.614H30.3152V81.5947H33.8346V86.4915V88.1723C33.8346 88.1723 37.0505 83.4272 37.8151 82.3532C38.2762 81.7403 39.0408 81.5887 39.3442 81.5887H41.6378V92.6079H37.9668V92.62Z" fill="#004994"/>
<path d="M47.3051 85.4236H50.8245V81.6008H54.6533V92.6201H50.6728V88.4878H47.3051V92.6201H43.4763V81.6008H47.3051V85.4236Z" fill="#004994"/>
<path d="M60.624 88.0267H62.9177L61.8437 84.0462L60.624 88.0267ZM68.4273 92.6201H64.2951L63.5306 90.3264H60.1629L59.55 92.6201H55.2661L59.2466 81.6008H64.3012L68.4273 92.6201Z" fill="#004994"/>
<path d="M74.0948 83.8945C73.7914 83.8945 73.3303 83.8945 73.0208 84.2039C72.7174 84.3556 72.5596 84.6651 72.5596 84.9685C72.5596 85.4296 72.7113 85.733 73.0208 85.8847C73.3242 86.0364 73.7854 86.1942 74.0948 86.1942H75.1688V83.8945H74.0948ZM75.0111 92.6201V88.3361C74.5499 88.3361 73.937 88.4878 73.7854 88.949C73.6337 89.4102 72.8691 91.091 72.7113 91.7038C72.4079 92.4684 72.2502 92.6201 71.7951 92.6201H68.124L69.198 90.1686C69.8109 88.7912 70.2721 88.3301 70.7271 87.875C71.0305 87.5716 71.8012 87.2621 71.8012 87.2621C71.4917 87.2621 70.5754 87.1104 69.9626 86.6493C69.198 86.0364 68.8886 85.4236 68.8886 84.5073C68.8886 83.8945 69.0403 83.2816 69.8048 82.5171C70.4177 82.0559 71.3339 81.6008 72.8691 81.6008H78.8399V92.6201H75.0111Z" fill="#004994"/>
<path d="M62.4566 108.852V103.645V102.42C62.4566 102.42 59.8535 106.248 59.2407 107.165C58.4761 108.39 58.0149 108.852 56.9409 108.852H54.0344V96.91H58.0149V101.807L57.8633 103.645C57.8633 103.645 61.5404 98.9003 62.1532 97.8263C62.6083 96.91 63.5306 96.91 63.9918 96.91H66.4432L66.2915 108.852H62.4566Z" fill="#004994"/>
<path d="M73.6336 99.3554C73.3302 99.3554 72.8691 99.5071 72.5596 99.6649C72.2562 99.9682 72.0985 100.126 72.0985 100.581C72.0985 101.042 72.2502 101.346 72.4019 101.497C72.863 101.801 73.3181 101.801 73.7793 101.801H74.8472V99.3493H73.6336V99.3554ZM74.7077 108.852V104.258C74.2465 104.258 73.6397 104.41 73.3302 104.871C73.1786 105.332 72.414 107.165 72.1045 107.935C71.8011 108.7 71.6434 108.852 71.1883 108.852H67.2078L68.4335 106.249C69.0463 104.562 69.5075 104.258 69.9626 103.797C70.4237 103.336 71.1883 103.033 71.1883 103.033C70.8788 103.033 69.9626 102.881 69.198 102.42C68.2818 101.807 67.9723 101.042 68.124 100.126C68.124 99.5132 68.124 98.7486 69.0403 97.8324C69.6531 97.3712 70.7271 96.9161 72.2562 96.9161H78.8399V108.858H74.7077V108.852Z" fill="#004994"/>
<path d="M10.2548 102.571H11.3288C12.4028 102.571 12.7062 101.655 12.7062 101.194C12.7062 100.581 12.5545 99.6648 11.3288 99.6648H10.2548V102.571ZM11.0193 96.91C12.245 96.91 14.2353 96.91 15.3033 97.984C16.0678 98.5969 16.6807 99.5131 16.6807 101.2C16.6807 103.651 14.8421 105.484 12.3967 105.484H10.2548V108.852H6.12256V96.91H11.0193Z" fill="#004994"/>
<path d="M23.7254 99.8166C21.8868 99.8166 21.7351 101.807 21.7351 102.881C21.7351 103.955 21.8868 105.787 23.7254 105.787C25.4062 105.787 25.7156 104.1 25.7156 103.033C25.564 100.891 24.6477 99.8166 23.7254 99.8166ZM28.3188 98.5908C29.3928 99.8165 29.9996 101.346 29.9996 102.875C29.9996 105.781 28.3188 108.997 23.5676 108.997C22.4936 108.997 20.8128 108.846 19.2837 107.62C18.058 106.394 17.4451 104.713 17.4451 102.875C17.2934 99.2037 19.7449 96.7523 23.7193 96.7523C25.5579 96.7523 27.2387 97.2134 28.4644 98.5908H28.3188Z" fill="#004994"/>
<path d="M41.025 100.429C40.5638 100.278 39.4959 100.126 38.5736 100.126C36.5833 100.126 35.3576 101.352 35.3576 102.881C35.3576 104.41 36.1221 105.636 38.4219 105.636C39.6476 105.636 40.7216 105.484 41.025 105.484L41.4861 108.7C39.4959 109.003 37.809 109.003 37.5056 109.003C33.6768 109.003 30.7703 106.71 30.7703 102.881C30.922 99.052 33.2217 96.7583 37.6573 96.7583C39.3442 96.7583 40.8733 96.91 41.6378 97.2195L41.025 100.429Z" fill="#004994"/>
<path d="M52.2019 100.429C51.7408 100.278 50.6728 100.126 49.5988 100.126C47.6086 100.126 46.3828 101.352 46.3828 102.881C46.3828 104.41 47.1474 105.636 49.5988 105.636C50.6728 105.636 51.7408 105.484 52.2019 105.484L52.5053 108.7C50.5151 109.003 48.986 109.003 48.6765 109.003C44.696 109.003 41.9412 106.71 41.9412 102.881C41.9412 99.052 44.3926 96.7583 48.6765 96.7583C50.3634 96.7583 52.0442 96.91 52.8087 97.2195L52.2019 100.429Z" fill="#004994"/>
</g>
<defs>
<clipPath id="clip0_31_65">
<rect width="86" height="109.003" fill="white"/>
</clipPath>
</defs>
</svg>
