<svg width="64" height="81" viewBox="0 0 64 81" fill="none" xmlns="http://www.w3.org/2000/svg">
<g clip-path="url(#clip0_69_81)">
<path d="M62.546 32.5373C61.2906 27.4196 56.8472 20.0248 43.1784 20.0248C40.3291 20.0248 32.8106 20.8229 31.4468 20.8229C31.5597 20.3675 32.928 16.4987 33.1537 15.9306C32.2416 15.4752 29.8483 15.0198 26.43 14.9071C18.4554 14.6816 8.76935 18.0904 2.73196 22.5273C2.0501 24.5744 0.799266 27.7623 0 29.6921C6.26769 26.3915 15.4931 22.9827 22.5556 22.2973C27.3421 21.8419 29.1619 22.7527 29.7309 23.0954C30.2999 23.3209 25.6307 24.9171 25.7436 26.7342C25.7436 29.0113 35.3122 26.5088 41.5799 26.7342C52.4039 27.0769 57.1859 30.8284 58.8973 36.1761C61.0603 42.7728 57.1859 49.144 52.4039 51.5338C58.3284 50.0548 64.7089 41.5238 62.546 32.5373Z" fill="#E30613"/>
<path d="M26.4301 14.9068C29.8484 15.0195 32.2417 15.4749 33.1538 15.9303C32.9281 16.4985 31.5598 20.3672 31.4469 20.8226C32.8152 20.8226 40.3337 20.0245 43.1785 20.0245C56.8474 20.0245 61.2907 27.4193 62.5461 32.537C62.8893 34.016 63.0022 35.3822 63.0022 36.7439C63.8014 32.9879 63.8014 28.4383 63.3453 25.9358C62.5461 20.8181 57.9898 13.6488 45.4589 13.4233C42.6096 13.4233 35.0911 14.2169 33.8402 14.2169C33.9531 13.7615 35.3214 9.89274 35.4342 9.32461C34.635 8.86919 32.5849 8.0711 29.1665 7.95837C21.0791 7.84565 11.393 11.1417 5.35564 15.5786C4.67378 17.6257 3.53132 20.5836 2.73657 22.518C8.77397 18.0901 18.4555 14.6768 26.4301 14.9068Z" fill="#009FE3"/>
<path d="M63.115 17.8648C61.9771 13.7706 57.5337 7.17395 47.7348 6.94399C44.8854 6.94399 37.7101 7.51213 36.1161 7.62486C36.2289 7.28217 37.3714 3.87335 37.5972 3.30071C36.9108 2.38989 34.8607 1.5963 31.4424 1.48357C23.3549 1.25812 13.7818 4.8969 7.74436 9.4465C7.0625 11.4936 5.35107 15.8177 5.35107 15.5878C11.3885 11.1509 21.0745 7.85031 29.162 7.96754C32.5803 8.08027 34.6304 8.87836 35.4297 9.33377C35.3168 9.90191 33.9486 13.7706 33.8357 14.2261C35.091 14.2261 42.6095 13.4325 45.4544 13.4325C57.9852 13.6579 62.5415 20.8273 63.3408 25.945C63.5666 27.194 63.684 29.1284 63.5666 31.1755C64.2529 26.8513 64.14 22.0717 63.115 17.8648Z" fill="white"/>
<path d="M62.8846 16.0432C61.9724 12.2872 57.642 5.46504 47.8476 5.46504C44.5421 5.46504 38.3918 5.92045 36.5675 6.1459C36.3372 6.94399 36.1114 7.51213 36.1114 7.62486C37.7055 7.51213 44.8853 6.94399 47.7301 6.94399C57.5291 7.17395 61.9724 13.7706 63.1104 17.8648C63.3362 18.8884 63.4536 19.7992 63.6794 20.8228C63.4581 18.8884 63.2278 17.1795 62.8846 16.0432ZM37.5971 3.30071C37.8229 2.73257 37.9403 2.16443 38.0532 1.93447C37.2539 1.25361 35.0909 0.112831 31.9029 0.000106032C23.9238 -0.112619 14.3551 3.53067 8.31775 7.96754C8.20486 8.42295 7.97456 8.87836 7.74878 9.4465C13.7862 5.00963 23.4677 1.25361 31.4423 1.48357C34.7477 1.5963 36.7978 2.38989 37.5971 3.30071Z" fill="#004994"/>
<path d="M54.9146 41.1852C56.0525 40.5043 57.1905 38.7954 56.7389 38.5699C55.8267 38.2272 54.3456 37.5464 53.2077 37.3164C53.5509 36.1801 52.0697 35.4948 49.1075 34.4712C48.8817 33.335 47.0574 32.0814 45.5763 33.2177C43.5262 32.0814 37.9449 30.2598 35.0955 29.9171C34.8697 30.3725 34.4136 31.1706 33.5015 31.2834C29.1665 31.9687 24.836 29.4662 18.2296 29.6917C13.1044 29.9216 7.51855 35.2648 8.43071 41.7488C9.11257 41.9787 9.91183 42.6596 9.56864 43.4577C9.22546 44.2558 8.65649 45.0494 7.86174 46.9838C7.17988 48.9181 6.15483 53.125 8.31782 56.083H14.1294C14.2423 55.6275 14.2423 54.0359 13.5605 53.9231C12.9915 53.8104 12.4225 53.0123 12.5354 52.2142C12.7612 51.3034 13.5605 50.6225 15.2719 49.8244C14.9287 48.5754 14.1339 47.2092 14.0211 46.7538C14.7029 46.6411 18.3515 53.4632 18.8076 54.2613C19.3766 55.0549 20.0584 55.7403 20.8577 56.083H27.2293C27.2293 55.4021 27.1164 53.9231 26.43 53.6932C25.5178 53.4677 24.4928 53.5804 24.267 52.5569C24.0367 51.5334 24.7231 50.2844 24.9489 48.6882C26.3171 48.2328 28.3672 48.3455 29.162 48.2328C28.4801 50.3926 28.7059 53.3505 28.8188 54.374C28.9317 54.7167 29.8438 55.6275 31.0992 56.083H37.4797C37.4797 55.5148 37.254 53.8059 36.5676 53.8059C34.9736 53.6932 34.0614 53.0123 34.0614 52.3269C34.1743 51.5288 35.0865 50.6225 36.4547 49.369C37.0237 48.9136 38.6177 46.7538 39.3041 47.0965C38.5093 47.6646 38.0532 48.8009 37.5972 49.599C38.279 51.6461 41.3587 54.9467 43.2959 56.083H49.6719C49.5591 55.4021 49.103 53.8059 47.965 53.6932C46.371 53.3505 45.5718 53.125 45.0028 52.3269C44.5467 51.5288 44.2035 48.9136 43.6345 47.4347C42.6095 45.2748 42.4966 44.364 43.5217 43.7959C43.6345 44.1386 44.3209 45.3876 44.6596 45.7302C46.371 45.5048 50.0151 44.364 50.4712 43.3405C51.6091 43.4532 52.7471 43.4532 53.3206 43.2277C53.4335 43.2277 54.3456 42.0915 54.1198 41.8615C54.0069 41.7488 53.7766 41.7488 53.438 41.7488C54.0024 41.6406 54.6843 41.2979 54.9146 41.1852Z" fill="#4687CA"/>
<path d="M51.9477 38.3401C51.6045 38.3401 50.4666 39.1382 50.1234 39.1382C49.7802 38.7955 48.7552 37.3165 51.9477 37.6592C52.4038 37.6592 52.0606 37.2038 51.7219 36.9784C51.0401 36.6357 49.7847 36.1803 48.1907 35.7294C47.8475 34.3631 46.2535 33.795 45.7974 35.3867C43.9731 34.3631 39.8729 32.7715 37.0236 32.316C36.6804 32.546 36.5675 33.6823 34.6303 34.025C32.237 34.4804 27.455 33.0014 21.9865 32.316C16.5181 31.6352 12.1876 34.3631 11.6187 39.3681C12.8695 39.1427 15.4931 39.0255 17.2 41.3025C22.4426 47.8992 21.413 50.289 22.3252 50.7444C23.3503 48.4673 24.9443 43.3496 23.3503 40.279C23.9192 40.0535 24.8314 40.8471 25.7435 41.6452C26.7686 42.6687 28.48 43.4668 29.9566 43.3496C30.5256 41.1898 33.0318 39.0255 33.7181 39.1427C32.3499 41.4197 31.668 42.7815 30.9817 45.3967C29.9566 48.5846 30.2998 52.2234 30.9817 52.3361C31.212 51.3125 31.6635 49.3782 33.2621 46.7629C35.7682 42.7815 40.5548 39.3681 44.086 40.1662C43.061 40.3962 42.2617 41.4197 42.0359 41.8707C43.4042 42.2133 44.086 42.7815 44.655 43.4623C45.9103 42.3261 48.2991 42.5515 49.8976 41.8707C49.8976 41.4152 50.0105 40.8471 50.8098 40.7344C51.8348 40.6217 53.2031 41.0771 54.1152 40.6217C54.4584 40.3962 55.2532 39.4854 55.2532 38.9172C54.9145 38.6783 53.4289 38.3401 51.9477 38.3401Z" fill="white"/>
<path d="M11.2799 62.6843H7.40551V63.7078H10.4807C10.4807 64.8441 10.3678 65.6422 10.0246 65.6422H7.40551V66.6658H11.2799V68.8256H4.55615V60.6372H11.2799V62.6843Z" fill="white"/>
<path d="M16.5181 62.797C16.4052 64.3887 16.062 65.7549 15.6059 66.553H17.5431V62.797H16.5181ZM18.7985 70.0791V68.8256H14.5809V70.0791H12.0747V66.553C12.0747 66.553 12.1876 66.553 12.6437 66.4403C13.2126 66.2104 13.6687 65.5295 13.899 64.5059C14.2422 63.1397 14.3551 61.6608 14.3551 60.6372H20.3925V66.6658H21.4175V70.0791H18.7985Z" fill="white"/>
<path d="M28.2543 68.8258V65.4125V64.6144C28.2543 64.6144 26.43 67.0042 26.0913 67.685C25.8655 68.1404 25.4094 68.8213 24.6102 68.8213H22.5601V60.6329H25.1791V64.2717V65.5207C25.1791 65.5207 27.5724 61.9946 28.1414 61.1966C28.4846 60.7411 29.0535 60.6284 29.2793 60.6284H30.9862V68.8168H28.2543V68.8258Z" fill="white"/>
<path d="M35.2039 63.4779H37.8229V60.6372H40.6723V68.8256H37.71V65.7549H35.2039V68.8256H32.3545V60.6372H35.2039V63.4779Z" fill="white"/>
<path d="M45.1157 65.4123H46.8226L46.0234 62.4543L45.1157 65.4123ZM50.9228 68.8256H47.8477L47.2787 67.1212H44.7725L44.3165 68.8256H41.1284L44.0907 60.6372H47.8522L50.9228 68.8256Z" fill="white"/>
<path d="M55.1404 62.3416C54.9146 62.3416 54.5714 62.3416 54.3411 62.5716C54.1154 62.6843 53.9979 62.9143 53.9979 63.1397C53.9979 63.4824 54.1108 63.7078 54.3411 63.8206C54.5669 63.9333 54.9101 64.0505 55.1404 64.0505H55.9397V62.3416H55.1404ZM55.8223 68.8256V65.6422C55.4791 65.6422 55.023 65.7549 54.9101 66.0976C54.7972 66.4403 54.2282 67.6893 54.1108 68.1447C53.8851 68.7129 53.7677 68.8256 53.429 68.8256H50.697L51.4963 67.0039C51.9524 65.9804 52.2956 65.6377 52.6342 65.2995C52.86 65.0741 53.4335 64.8441 53.4335 64.8441C53.2032 64.8441 52.5213 64.7314 52.0653 64.3887C51.4963 63.9333 51.266 63.4779 51.266 62.797C51.266 62.3416 51.3789 61.8862 51.9479 61.3181C52.4039 60.9754 53.0858 60.6372 54.2282 60.6372H58.6716V68.8256H55.8223Z" fill="white"/>
<path d="M46.4794 80.8874V77.0187V76.1079C46.4794 76.1079 44.5422 78.953 44.0861 79.6339C43.5171 80.5447 43.1739 80.8874 42.3747 80.8874H40.2117V72.0137H43.1739V75.6524L43.061 77.0187C43.061 77.0187 45.7975 73.4926 46.2536 72.6945C46.5923 72.0137 47.2786 72.0137 47.6218 72.0137H49.4461L49.3332 80.8874H46.4794Z" fill="white"/>
<path d="M54.7972 73.8307C54.5714 73.8307 54.2282 73.9434 53.9979 74.0607C53.7721 74.2861 53.6547 74.4033 53.6547 74.7415C53.6547 75.0842 53.7676 75.3097 53.8805 75.4224C54.2237 75.6478 54.5624 75.6478 54.9056 75.6478H55.7003V73.8262H54.7972V73.8307ZM55.5965 80.8873V77.474C55.2533 77.474 54.8017 77.5867 54.5714 77.9294C54.4585 78.2721 53.8895 79.6338 53.6592 80.2064C53.4335 80.7746 53.3161 80.8873 52.9774 80.8873H50.0151L50.9273 78.9529C51.3834 77.6994 51.7266 77.474 52.0652 77.1313C52.4084 76.7886 52.9774 76.5632 52.9774 76.5632C52.7471 76.5632 52.0652 76.4504 51.4963 76.1077C50.8144 75.6523 50.5841 75.0842 50.697 74.4033C50.697 73.9479 50.697 73.3798 51.3789 72.6989C51.8349 72.3562 52.6342 72.0181 53.7721 72.0181H58.6716V80.8918H55.5965V80.8873Z" fill="white"/>
<path d="M7.63129 76.2206H8.43056C9.22983 76.2206 9.45561 75.5397 9.45561 75.197C9.45561 74.7416 9.34272 74.0608 8.43056 74.0608H7.63129V76.2206ZM8.20026 72.0137C9.11242 72.0137 10.5935 72.0137 11.3883 72.8118C11.9573 73.2672 12.4133 73.948 12.4133 75.2015C12.4133 77.0232 11.0451 78.3849 9.22531 78.3849H7.63129V80.8874H4.55615V72.0137H8.20026Z" fill="white"/>
<path d="M17.6562 74.1735C16.2879 74.1735 16.175 75.6525 16.175 76.4506C16.175 77.2487 16.2879 78.6104 17.6562 78.6104C18.907 78.6104 19.1373 77.3569 19.1373 76.5633C19.0244 74.9716 18.3425 74.1735 17.6562 74.1735ZM21.0745 73.2627C21.8738 74.1735 22.3253 75.3098 22.3253 76.4461C22.3253 78.6059 21.0745 80.9957 17.5388 80.9957C16.7395 80.9957 15.4887 80.883 14.3507 79.9721C13.4386 79.0613 12.9825 77.8123 12.9825 76.4461C12.8696 73.7181 14.6939 71.8965 17.6517 71.8965C19.0199 71.8965 20.2707 72.2392 21.1829 73.2627H21.0745Z" fill="white"/>
<path d="M30.5301 74.6288C30.1869 74.5161 29.3922 74.4034 28.7058 74.4034C27.2247 74.4034 26.3125 75.3142 26.3125 76.4505C26.3125 77.5867 26.8815 78.4976 28.5929 78.4976C29.505 78.4976 30.3043 78.3848 30.5301 78.3848L30.8733 80.7746C29.3922 81.0001 28.1368 81.0001 27.911 81.0001C25.0617 81.0001 22.8987 79.2957 22.8987 76.4505C23.0116 73.6053 24.723 71.9009 28.0239 71.9009C29.2793 71.9009 30.4172 72.0136 30.9862 72.2436L30.5301 74.6288Z" fill="white"/>
<path d="M38.8478 74.6288C38.5047 74.5161 37.7099 74.4034 36.9106 74.4034C35.4295 74.4034 34.5174 75.3142 34.5174 76.4505C34.5174 77.5867 35.0863 78.4976 36.9106 78.4976C37.7099 78.4976 38.5047 78.3848 38.8478 78.3848L39.0736 80.7746C37.5925 81.0001 36.4546 81.0001 36.2243 81.0001C33.262 81.0001 31.2119 79.2957 31.2119 76.4505C31.2119 73.6053 33.0362 71.9009 36.2243 71.9009C37.4796 71.9009 38.7304 72.0136 39.2994 72.2436L38.8478 74.6288Z" fill="white"/>
</g>
<defs>
<clipPath id="clip0_69_81">
<rect width="64" height="81" fill="white"/>
</clipPath>
</defs>
</svg>
