<svg width="32" height="32" viewBox="0 0 32 32" fill="none" xmlns="http://www.w3.org/2000/svg">
<path d="M32 16C32 7.16344 24.8366 0 16 0C7.16344 0 0 7.16344 0 16C0 24.8366 7.16344 32 16 32C24.8366 32 32 24.8366 32 16Z" fill="#2787F5"/>
<path fill-rule="evenodd" clip-rule="evenodd" d="M10.2036 12H8.56264C8.09378 12 8 12.223 8 12.4689C8 12.908 8.55634 15.086 10.5904 17.9665C11.9465 19.9336 13.857 21 15.5955 21C16.6386 21 16.7677 20.7632 16.7677 20.3552V18.8684C16.7677 18.3947 16.8665 18.3002 17.1968 18.3002C17.4402 18.3002 17.8574 18.4232 18.831 19.3716C19.9437 20.4957 20.1271 21 20.7529 21H22.3939C22.8628 21 23.0973 20.7632 22.962 20.2958C22.814 19.83 22.2828 19.1541 21.5779 18.3529C21.1954 17.8962 20.6217 17.4045 20.4478 17.1585C20.2045 16.8424 20.274 16.7018 20.4478 16.4208C20.4478 16.4208 22.4471 13.5754 22.6558 12.6094C22.7601 12.2581 22.6558 12 22.1595 12H20.5185C20.1013 12 19.9089 12.223 19.8046 12.4689C19.8046 12.4689 18.9701 14.5239 17.7879 15.8588C17.4054 16.2452 17.2316 16.3681 17.0229 16.3681C16.9186 16.3681 16.7676 16.2452 16.7676 15.8939V12.6094C16.7676 12.1879 16.6466 12 16.2988 12H13.7201C13.4593 12 13.3025 12.1956 13.3025 12.3811C13.3025 12.7807 13.8936 12.8729 13.9545 13.997V16.4384C13.9545 16.9737 13.8588 17.0707 13.6502 17.0707C13.0939 17.0707 11.7407 15.0065 10.9381 12.6445C10.7808 12.1854 10.623 12 10.2036 12Z" fill="white"/>
</svg>
